<svg width="32" height="32" viewBox="0 0 32 32" fill="none" xmlns="http://www.w3.org/2000/svg">
<path d="M3.44 23V22.8L3.86 22.64C4.14 22.5333 4.31333 22.4067 4.38 22.26C4.46 22.1 4.5 21.8867 4.5 21.62V11.18C4.5 10.9133 4.46 10.7 4.38 10.54C4.3 10.38 4.12667 10.2533 3.86 10.16L3.44 10V9.8H8.54V10L8.18 10.16C7.92667 10.2533 7.75333 10.3867 7.66 10.56C7.56667 10.72 7.52 10.9333 7.52 11.2V22.6H10.6C11.0933 22.6 11.4533 22.48 11.68 22.24C11.92 22 12.1467 21.6533 12.36 21.2L13.14 19.52H13.34L13.16 23H3.44ZM14.1227 23V22.8L14.5227 22.66C14.976 22.5133 15.2027 22.1333 15.2027 21.52V11.28C15.2027 11.0133 15.1693 10.8 15.1027 10.64C15.0493 10.48 14.896 10.3467 14.6427 10.24L14.1227 10V9.8H17.9827L21.6827 19.48L25.1627 9.8H29.1027V10L28.7827 10.12C28.5293 10.2133 28.356 10.3467 28.2627 10.52C28.1693 10.68 28.1227 10.8933 28.1227 11.16V21.62C28.1227 21.8867 28.156 22.0933 28.2227 22.24C28.2893 22.3867 28.4493 22.5133 28.7027 22.62L29.1027 22.8V23H24.1227V22.8L24.5427 22.62C24.796 22.5133 24.956 22.3867 25.0227 22.24C25.0893 22.0933 25.1227 21.8867 25.1227 21.62V17.12L25.1627 11.4L20.9827 23H19.9827L15.6227 11.54L15.6827 16.52V21.56C15.6827 21.8533 15.7227 22.0933 15.8027 22.28C15.896 22.4533 16.0693 22.58 16.3227 22.66L16.7627 22.8V23H14.1227Z" fill="black"/>
</svg>
