<svg width="22" height="22" viewBox="0 0 22 22" fill="none" xmlns="http://www.w3.org/2000/svg">
<path d="M11 10.7708C11.4431 10.7708 11.8212 10.6142 12.1344 10.301C12.4476 9.98785 12.6042 9.60972 12.6042 9.16667C12.6042 8.72361 12.4476 8.34549 12.1344 8.03229C11.8212 7.7191 11.4431 7.5625 11 7.5625C10.557 7.5625 10.1788 7.7191 9.86564 8.03229C9.55245 8.34549 9.39585 8.72361 9.39585 9.16667C9.39585 9.60972 9.55245 9.98785 9.86564 10.301C10.1788 10.6142 10.557 10.7708 11 10.7708ZM11 18.3563C13.032 16.5076 14.533 14.8309 15.5031 13.326C16.4733 11.8212 16.9584 10.4958 16.9584 9.35C16.9584 7.54722 16.3816 6.07292 15.2281 4.92708C14.0747 3.78125 12.6653 3.20833 11 3.20833C9.33474 3.20833 7.92537 3.78125 6.77189 4.92708C5.61842 6.07292 5.04169 7.54722 5.04169 9.35C5.04169 10.4958 5.53821 11.8212 6.53127 13.326C7.52433 14.8309 9.01391 16.5076 11 18.3563ZM11 20.1667C8.5403 18.0736 6.70315 16.1295 5.48856 14.3344C4.27398 12.5392 3.66669 10.8778 3.66669 9.35C3.66669 7.05833 4.40384 5.23264 5.87815 3.87292C7.35245 2.51319 9.05974 1.83333 11 1.83333C12.9403 1.83333 14.6476 2.51319 16.1219 3.87292C17.5962 5.23264 18.3334 7.05833 18.3334 9.35C18.3334 10.8778 17.7261 12.5392 16.5115 14.3344C15.2969 16.1295 13.4597 18.0736 11 20.1667Z" fill="#024B15"/>
</svg>
