<svg width="178" height="37" viewBox="0 0 178 37" fill="none" xmlns="http://www.w3.org/2000/svg">
<path d="M0.792007 28V27.64L1.54801 27.352C2.05201 27.16 2.36401 26.932 2.48401 26.668C2.62801 26.38 2.70001 25.996 2.70001 25.516V6.72401C2.70001 6.24401 2.62801 5.86001 2.48401 5.57201C2.34001 5.28401 2.02801 5.05601 1.54801 4.88801L0.792007 4.60001V4.24001H9.97201V4.60001L9.32401 4.88801C8.86801 5.05601 8.55601 5.29601 8.38801 5.60801C8.22001 5.89601 8.13601 6.28001 8.13601 6.76001V27.28H13.68C14.568 27.28 15.216 27.064 15.624 26.632C16.056 26.2 16.464 25.576 16.848 24.76L18.252 21.736H18.612L18.288 28H0.792007Z" fill="#171717"/>
<path d="M26.0798 28.54C25.1438 28.54 24.2798 28.36 23.4878 28C22.7198 27.64 22.1078 27.064 21.6518 26.272C21.2198 25.456 21.0158 24.388 21.0398 23.068L21.1478 13.816C21.1478 13.264 21.0518 12.868 20.8598 12.628C20.6678 12.388 20.3678 12.22 19.9598 12.124L19.5278 11.98V11.62L25.9718 10.36L26.3318 10.72L26.1518 15.832V24.508C26.1518 25.276 26.3678 25.84 26.7998 26.2C27.2558 26.56 27.8198 26.74 28.4918 26.74C29.1638 26.74 29.7638 26.644 30.2918 26.452C30.8198 26.26 31.3478 25.972 31.8758 25.588L32.0198 13.852C32.0198 13.3 31.9358 12.916 31.7678 12.7C31.5998 12.46 31.2878 12.292 30.8318 12.196L30.4718 12.088V11.728L36.7718 10.36L37.1318 10.72L37.0238 15.832V25.588C37.0238 26.116 37.0958 26.524 37.2398 26.812C37.3838 27.1 37.6958 27.34 38.1758 27.532L38.5358 27.64V28L32.2358 28.36L31.9118 26.236C31.1198 26.884 30.2558 27.436 29.3198 27.892C28.4078 28.324 27.3278 28.54 26.0798 28.54Z" fill="#171717"/>
<path d="M40.0615 28V27.64L40.5655 27.496C41.0455 27.352 41.3695 27.136 41.5375 26.848C41.7055 26.56 41.7895 26.176 41.7895 25.696C41.7895 24.856 41.7895 23.956 41.7895 22.996C41.8135 22.012 41.8255 21.16 41.8255 20.44V18.712C41.8255 17.968 41.8135 17.272 41.7895 16.624C41.7895 15.952 41.7895 15.22 41.7895 14.428C41.7655 13.924 41.6695 13.552 41.5015 13.312C41.3575 13.048 41.0455 12.868 40.5655 12.772L40.0615 12.664V12.304L46.6495 10.18L47.0095 10.54L46.9015 15.652V25.732C46.9255 26.212 47.0215 26.596 47.1895 26.884C47.3575 27.172 47.6695 27.388 48.1255 27.532L48.4855 27.64V28H40.0615ZM42.1135 7.37201C42.4495 6.74801 42.8335 6.05201 43.2655 5.28401C43.6975 4.49201 44.2135 3.53201 44.8135 2.40401C45.2215 1.63601 45.6175 1.08401 46.0015 0.748007C46.3855 0.388008 46.8295 0.208008 47.3335 0.208008C47.7895 0.208008 48.1855 0.364007 48.5215 0.676006C48.8575 0.964007 49.0255 1.32401 49.0255 1.75601C49.0255 2.21201 48.8695 2.64401 48.5575 3.05201C48.2455 3.43601 47.7175 3.89201 46.9735 4.42001C45.9415 5.14001 45.0775 5.77601 44.3815 6.32801C43.6855 6.85601 43.0615 7.32401 42.5095 7.73201L42.1135 7.37201Z" fill="#171717"/>
<path d="M56.3074 28.54C55.1314 28.54 54.0754 28.396 53.1394 28.108C52.2034 27.844 51.3394 27.508 50.5474 27.1L50.5834 22.816H50.9434L52.1674 24.976C52.6954 25.936 53.2714 26.656 53.8954 27.136C54.5434 27.592 55.3594 27.82 56.3434 27.82C57.4954 27.82 58.4194 27.568 59.1154 27.064C59.8354 26.536 60.1954 25.84 60.1954 24.976C60.1954 24.184 59.9434 23.536 59.4394 23.032C58.9354 22.528 57.9994 22.072 56.6314 21.664L55.1194 21.196C53.6554 20.764 52.5034 20.092 51.6634 19.18C50.8234 18.268 50.4034 17.152 50.4034 15.832C50.4034 14.248 51.0274 12.904 52.2754 11.8C53.5234 10.696 55.3114 10.144 57.6394 10.144C58.5754 10.144 59.4514 10.252 60.2674 10.468C61.1074 10.66 61.9114 10.96 62.6794 11.368L62.4634 15.256H62.1034L60.8434 13.024C60.3874 12.232 59.9314 11.68 59.4754 11.368C59.0434 11.032 58.3834 10.864 57.4954 10.864C56.6794 10.864 55.9114 11.092 55.1914 11.548C54.4714 12.004 54.1114 12.652 54.1114 13.492C54.1114 14.308 54.4114 14.956 55.0114 15.436C55.6354 15.916 56.5474 16.36 57.7474 16.768L59.3674 17.236C61.0954 17.764 62.3314 18.496 63.0754 19.432C63.8194 20.344 64.1914 21.448 64.1914 22.744C64.1914 24.496 63.4954 25.9 62.1034 26.956C60.7354 28.012 58.8034 28.54 56.3074 28.54Z" fill="#171717"/>
<path d="M73.5989 28V27.64L74.3189 27.388C75.1349 27.124 75.5429 26.44 75.5429 25.336V6.90401C75.5429 6.42401 75.4829 6.04001 75.3629 5.75201C75.2669 5.46401 74.9909 5.22401 74.5349 5.03201L73.5989 4.60001V4.24001H80.5469L87.2069 21.664L93.4709 4.24001H100.563V4.60001L99.9869 4.81601C99.5309 4.98401 99.2189 5.22401 99.0509 5.53601C98.8829 5.82401 98.7989 6.20801 98.7989 6.68801V25.516C98.7989 25.996 98.8589 26.368 98.9789 26.632C99.0989 26.896 99.3869 27.124 99.8429 27.316L100.563 27.64V28H91.5989V27.64L92.3549 27.316C92.8109 27.124 93.0989 26.896 93.2189 26.632C93.3389 26.368 93.3989 25.996 93.3989 25.516V17.416L93.4709 7.12001L85.9469 28H84.1469L76.2989 7.37201L76.4069 16.336V25.408C76.4069 25.936 76.4789 26.368 76.6229 26.704C76.7909 27.016 77.1029 27.244 77.5589 27.388L78.3509 27.64V28H73.5989Z" fill="#171717"/>
<path d="M106.395 8.27201C105.579 8.27201 104.883 8.02001 104.307 7.51601C103.755 6.98801 103.479 6.32801 103.479 5.53601C103.479 4.72001 103.755 4.06001 104.307 3.55601C104.883 3.05201 105.579 2.80001 106.395 2.80001C107.211 2.80001 107.895 3.05201 108.447 3.55601C108.999 4.06001 109.275 4.72001 109.275 5.53601C109.275 6.32801 108.999 6.98801 108.447 7.51601C107.895 8.02001 107.211 8.27201 106.395 8.27201ZM102.147 28V27.64L102.651 27.496C103.131 27.352 103.455 27.136 103.623 26.848C103.815 26.56 103.911 26.176 103.911 25.696V14.428C103.911 13.924 103.815 13.552 103.623 13.312C103.455 13.048 103.131 12.868 102.651 12.772L102.147 12.664V12.304L108.735 10.18L109.095 10.54L108.987 15.652V25.732C108.987 26.212 109.071 26.596 109.239 26.884C109.431 27.172 109.755 27.388 110.211 27.532L110.571 27.64V28H102.147Z" fill="#171717"/>
<path d="M120.013 21.772C118.357 21.772 116.953 21.496 115.801 20.944V22.168C115.801 22.912 116.173 23.356 116.917 23.5L123.685 24.76C124.813 24.976 125.833 25.264 126.745 25.624C127.657 25.96 128.389 26.452 128.941 27.1C129.493 27.724 129.769 28.588 129.769 29.692C129.769 30.868 129.385 31.948 128.617 32.932C127.849 33.94 126.709 34.744 125.197 35.344C123.709 35.968 121.849 36.28 119.617 36.28C117.697 36.28 116.173 36.076 115.045 35.668C113.917 35.284 113.113 34.78 112.633 34.156C112.177 33.532 111.949 32.872 111.949 32.176C111.949 31.312 112.237 30.436 112.813 29.548C113.413 28.684 114.145 27.988 115.009 27.46C114.265 27.172 113.725 26.8 113.389 26.344C113.053 25.888 112.885 25.396 112.885 24.868C112.885 24.388 113.005 23.944 113.245 23.536C113.509 23.104 113.821 22.672 114.181 22.24L115.369 20.728C113.617 19.72 112.741 18.136 112.741 15.976C112.741 14.248 113.353 12.844 114.577 11.764C115.825 10.684 117.649 10.144 120.049 10.144C121.273 10.144 122.341 10.288 123.253 10.576C124.189 10.864 124.957 11.272 125.557 11.8C126.325 11.68 127.045 11.488 127.717 11.224C128.413 10.936 129.037 10.552 129.589 10.072L130.093 10.432V12.268H126.025C126.889 13.228 127.321 14.464 127.321 15.976C127.321 17.656 126.697 19.048 125.449 20.152C124.225 21.232 122.413 21.772 120.013 21.772ZM119.977 21.052C120.937 21.052 121.633 20.656 122.065 19.864C122.521 19.072 122.749 17.752 122.749 15.904C122.749 14.056 122.521 12.76 122.065 12.016C121.633 11.248 120.961 10.864 120.049 10.864C119.161 10.864 118.489 11.26 118.033 12.052C117.577 12.82 117.349 14.128 117.349 15.976C117.349 17.824 117.553 19.132 117.961 19.9C118.393 20.668 119.065 21.052 119.977 21.052ZM114.613 31.024C114.613 32.44 115.045 33.508 115.909 34.228C116.797 34.948 118.189 35.308 120.085 35.308C122.077 35.308 123.577 34.984 124.585 34.336C125.593 33.688 126.097 32.776 126.097 31.6C126.097 30.928 125.845 30.388 125.341 29.98C124.861 29.572 124.033 29.26 122.857 29.044L116.341 27.82C116.149 27.772 115.957 27.724 115.765 27.676C115.429 28.156 115.153 28.696 114.937 29.296C114.721 29.92 114.613 30.496 114.613 31.024Z" fill="#171717"/>
<path d="M137.806 28.54C136.87 28.54 136.006 28.36 135.214 28C134.446 27.64 133.834 27.064 133.378 26.272C132.946 25.456 132.742 24.388 132.766 23.068L132.874 13.816C132.874 13.264 132.778 12.868 132.586 12.628C132.394 12.388 132.094 12.22 131.686 12.124L131.254 11.98V11.62L137.698 10.36L138.058 10.72L137.878 15.832V24.508C137.878 25.276 138.094 25.84 138.526 26.2C138.982 26.56 139.546 26.74 140.218 26.74C140.89 26.74 141.49 26.644 142.018 26.452C142.546 26.26 143.074 25.972 143.602 25.588L143.746 13.852C143.746 13.3 143.662 12.916 143.494 12.7C143.326 12.46 143.014 12.292 142.558 12.196L142.198 12.088V11.728L148.498 10.36L148.858 10.72L148.75 15.832V25.588C148.75 26.116 148.822 26.524 148.966 26.812C149.11 27.1 149.422 27.34 149.902 27.532L150.262 27.64V28L143.962 28.36L143.638 26.236C142.846 26.884 141.982 27.436 141.046 27.892C140.134 28.324 139.054 28.54 137.806 28.54Z" fill="#171717"/>
<path d="M160.611 10.144C162.171 10.144 163.503 10.468 164.607 11.116C165.711 11.74 166.551 12.604 167.127 13.708C167.727 14.788 168.027 16.024 168.027 17.416C168.027 17.68 168.015 17.956 167.991 18.244C167.967 18.508 167.919 18.748 167.847 18.964H157.119C157.143 21.556 157.599 23.428 158.487 24.58C159.399 25.708 160.743 26.272 162.519 26.272C163.719 26.272 164.691 26.08 165.435 25.696C166.179 25.312 166.875 24.748 167.523 24.004L167.883 24.328C167.139 25.648 166.143 26.68 164.895 27.424C163.671 28.168 162.195 28.54 160.467 28.54C158.763 28.54 157.251 28.18 155.931 27.46C154.611 26.716 153.579 25.66 152.835 24.292C152.091 22.924 151.719 21.292 151.719 19.396C151.719 17.428 152.151 15.76 153.015 14.392C153.879 13 154.983 11.944 156.327 11.224C157.695 10.504 159.123 10.144 160.611 10.144ZM160.503 10.864C159.807 10.864 159.207 11.08 158.703 11.512C158.223 11.92 157.839 12.664 157.551 13.744C157.287 14.8 157.143 16.3 157.119 18.244H163.275C163.515 15.628 163.419 13.744 162.987 12.592C162.555 11.44 161.727 10.864 160.503 10.864Z" fill="#171717"/>
<path d="M169.367 28V27.64L169.799 27.496C170.663 27.208 171.095 26.608 171.095 25.696V6.43601C171.095 5.95601 170.999 5.59601 170.807 5.35601C170.615 5.09201 170.279 4.90001 169.799 4.78001L169.331 4.67201V4.31201L175.919 2.76401L176.351 3.08801L176.207 8.12801V20.44C176.207 21.328 176.207 22.216 176.207 23.104C176.231 23.968 176.243 24.832 176.243 25.696C176.243 26.176 176.339 26.572 176.531 26.884C176.723 27.172 177.047 27.388 177.503 27.532L177.971 27.64V28H169.367Z" fill="#171717"/>
</svg>
